# xmcd
# Track frame offsets:
# 150
# 14975
# 29008
# 43955
# 59454
# 75425
# 96927
# 109552
# 124609
# 140274
# 157651
# 172018
#
# Disc length: 2474 seconds
# Revision: 0
# Processed by: cddbd v1.5.2PL0 Copyright (c) Steve Scherf et al.
# Submitted via: VisiTrax 2.11.2.271 - For more info visit www.synapsa.com
#
DISCID=9d09a80c
DTITLE=8 Ball Aitken - Southern Hemisphere
DYEAR=2013
DGENRE=
TTITLE0=I'm Going to Jail
TTITLE1=Love the Way She Rolls
TTITLE2=My Tank's on Empty
TTITLE3=Hillbilly Disco
TTITLE4=Underneath the Stars
TTITLE5=Mile in My Shoes
TTITLE6=Destroying the World
TTITLE7=A Gig isd a Gig
TTITLE8=Catfish Wish
TTITLE9=Politics of a One Man Band
TTITLE10=Hobo Millionaire
TTITLE11=Old Hickory
EXTD=
EXTT0=
EXTT1=
EXTT2=
EXTT3=
EXTT4=
EXTT5=
EXTT6=
EXTT7=
EXTT8=
EXTT9=
EXTT10=
EXTT11=
PLAYORDER=
